<mxfile host="app.diagrams.net" agent="Mozilla/5.0 (X11; Ubuntu; Linux x86_64; rv:141.0) Gecko/20100101 Firefox/141.0" version="28.0.7">
  <diagram name="Page-1" id="5ecWiP2A84Rjaq3YbAmf">
    <mxGraphModel dx="396" dy="222" grid="1" gridSize="5" guides="1" tooltips="1" connect="1" arrows="1" fold="1" page="1" pageScale="1" pageWidth="850" pageHeight="1100" math="0" shadow="0">
      <root>
        <mxCell id="0" />
        <mxCell id="1" parent="0" />
        <mxCell id="DCtlHsIMC1-sbq8FL9Gm-1" value="" style="endArrow=oval;html=1;rounded=0;startArrow=oval;startFill=1;endFill=1;fillColor=#dae8fc;strokeColor=#6c8ebf;" edge="1" parent="1">
          <mxGeometry width="50" height="50" relative="1" as="geometry">
            <mxPoint x="280" y="240" as="sourcePoint" />
            <mxPoint x="440" y="240" as="targetPoint" />
          </mxGeometry>
        </mxCell>
        <mxCell id="DCtlHsIMC1-sbq8FL9Gm-2" value="" style="endArrow=oval;html=1;rounded=0;startArrow=oval;startFill=1;endFill=1;fillColor=#ffe6cc;strokeColor=#d79b00;" edge="1" parent="1">
          <mxGeometry width="50" height="50" relative="1" as="geometry">
            <mxPoint x="240" y="320" as="sourcePoint" />
            <mxPoint x="480" y="320" as="targetPoint" />
          </mxGeometry>
        </mxCell>
        <mxCell id="DCtlHsIMC1-sbq8FL9Gm-3" value="" style="endArrow=blockThin;html=1;rounded=0;startArrow=oval;startFill=1;endFill=1;strokeWidth=1;startSize=3;endSize=3;" edge="1" parent="1">
          <mxGeometry width="50" height="50" relative="1" as="geometry">
            <mxPoint x="360" y="240" as="sourcePoint" />
            <mxPoint x="360" y="320" as="targetPoint" />
          </mxGeometry>
        </mxCell>
        <mxCell id="DCtlHsIMC1-sbq8FL9Gm-4" value="0" style="text;html=1;align=center;verticalAlign=middle;whiteSpace=wrap;rounded=0;" vertex="1" parent="1">
          <mxGeometry x="350" y="225" width="20" height="10" as="geometry" />
        </mxCell>
        <mxCell id="DCtlHsIMC1-sbq8FL9Gm-5" value="0" style="text;html=1;align=center;verticalAlign=middle;whiteSpace=wrap;rounded=0;" vertex="1" parent="1">
          <mxGeometry x="350" y="325" width="20" height="10" as="geometry" />
        </mxCell>
        <mxCell id="DCtlHsIMC1-sbq8FL9Gm-6" value="-a" style="text;html=1;align=center;verticalAlign=middle;whiteSpace=wrap;rounded=0;" vertex="1" parent="1">
          <mxGeometry x="270" y="225" width="15" height="10" as="geometry" />
        </mxCell>
        <mxCell id="DCtlHsIMC1-sbq8FL9Gm-7" value="a" style="text;html=1;align=center;verticalAlign=middle;whiteSpace=wrap;rounded=0;" vertex="1" parent="1">
          <mxGeometry x="435" y="225" width="15" height="10" as="geometry" />
        </mxCell>
        <mxCell id="DCtlHsIMC1-sbq8FL9Gm-8" value="-Q" style="text;html=1;align=center;verticalAlign=middle;whiteSpace=wrap;rounded=0;" vertex="1" parent="1">
          <mxGeometry x="230" y="325" width="20" height="10" as="geometry" />
        </mxCell>
        <mxCell id="DCtlHsIMC1-sbq8FL9Gm-9" value="Q" style="text;html=1;align=center;verticalAlign=middle;whiteSpace=wrap;rounded=0;" vertex="1" parent="1">
          <mxGeometry x="470" y="325" width="20" height="10" as="geometry" />
        </mxCell>
        <mxCell id="DCtlHsIMC1-sbq8FL9Gm-10" value="" style="endArrow=blockThin;html=1;rounded=0;startArrow=oval;startFill=1;endFill=1;strokeWidth=1;startSize=3;endSize=3;" edge="1" parent="1">
          <mxGeometry width="50" height="50" relative="1" as="geometry">
            <mxPoint x="375" y="240" as="sourcePoint" />
            <mxPoint x="395" y="320" as="targetPoint" />
          </mxGeometry>
        </mxCell>
        <mxCell id="DCtlHsIMC1-sbq8FL9Gm-11" value="" style="endArrow=blockThin;html=1;rounded=0;startArrow=none;startFill=0;endFill=1;strokeWidth=1;startSize=3;endSize=3;" edge="1" parent="1">
          <mxGeometry width="50" height="50" relative="1" as="geometry">
            <mxPoint x="440" y="240" as="sourcePoint" />
            <mxPoint x="480" y="320" as="targetPoint" />
          </mxGeometry>
        </mxCell>
        <mxCell id="DCtlHsIMC1-sbq8FL9Gm-12" value="" style="endArrow=blockThin;html=1;rounded=0;startArrow=none;startFill=0;endFill=1;strokeWidth=1;startSize=3;endSize=3;" edge="1" parent="1">
          <mxGeometry width="50" height="50" relative="1" as="geometry">
            <mxPoint x="280" y="240" as="sourcePoint" />
            <mxPoint x="240" y="320" as="targetPoint" />
          </mxGeometry>
        </mxCell>
        <mxCell id="DCtlHsIMC1-sbq8FL9Gm-14" value="" style="endArrow=blockThin;html=1;rounded=0;startArrow=oval;startFill=1;endFill=1;strokeWidth=1;startSize=3;endSize=3;" edge="1" parent="1">
          <mxGeometry width="50" height="50" relative="1" as="geometry">
            <mxPoint x="330" y="240" as="sourcePoint" />
            <mxPoint x="310" y="320" as="targetPoint" />
          </mxGeometry>
        </mxCell>
      </root>
    </mxGraphModel>
  </diagram>
</mxfile>
